<?xml version="1.0" encoding="UTF-8"?>
<svg width="700pt" height="700pt" version="1.1" viewBox="0 0 700 700" xmlns="http://www.w3.org/2000/svg" xmlns:xlink="http://www.w3.org/1999/xlink">
 <defs>
  <symbol id="w" overflow="visible">
   <path d="m18.766-1.125c-0.96875 0.5-1.9805 0.875-3.0312 1.125-1.043 0.25781-2.1367 0.39062-3.2812 0.39062-3.3984 0-6.0898-0.94531-8.0781-2.8438-1.9922-1.9062-2.9844-4.4844-2.9844-7.7344 0-3.2578 0.99219-5.8359 2.9844-7.7344 1.9883-1.9062 4.6797-2.8594 8.0781-2.8594 1.1445 0 2.2383 0.13281 3.2812 0.39062 1.0508 0.25 2.0625 0.625 3.0312 1.125v4.2188c-0.98047-0.65625-1.9453-1.1406-2.8906-1.4531-0.94922-0.3125-1.9492-0.46875-3-0.46875-1.875 0-3.3516 0.60547-4.4219 1.8125-1.0742 1.1992-1.6094 2.8555-1.6094 4.9688 0 2.1055 0.53516 3.7617 1.6094 4.9688 1.0703 1.1992 2.5469 1.7969 4.4219 1.7969 1.0508 0 2.0508-0.14844 3-0.45312 0.94531-0.3125 1.9102-0.80078 2.8906-1.4688z"/>
  </symbol>
  <symbol id="c" overflow="visible">
   <path d="m13.734-11.141c-0.4375-0.19531-0.87109-0.34375-1.2969-0.4375-0.41797-0.10156-0.83984-0.15625-1.2656-0.15625-1.2617 0-2.2305 0.40625-2.9062 1.2188-0.67969 0.80469-1.0156 1.9531-1.0156 3.4531v7.0625h-4.8906v-15.312h4.8906v2.5156c0.625-1 1.3438-1.7266 2.1562-2.1875 0.82031-0.46875 1.8008-0.70312 2.9375-0.70312 0.16406 0 0.34375 0.011719 0.53125 0.03125 0.19531 0.011719 0.47656 0.039062 0.84375 0.078125z"/>
  </symbol>
  <symbol id="a" overflow="visible">
   <path d="m17.641-7.7031v1.4062h-11.453c0.125 1.1484 0.53906 2.0078 1.25 2.5781 0.70703 0.57422 1.7031 0.85938 2.9844 0.85938 1.0312 0 2.082-0.14844 3.1562-0.45312 1.082-0.3125 2.1914-0.77344 3.3281-1.3906v3.7656c-1.1562 0.4375-2.3125 0.76562-3.4688 0.98438-1.1562 0.22656-2.3125 0.34375-3.4688 0.34375-2.7734 0-4.9297-0.70312-6.4688-2.1094-1.5312-1.4062-2.2969-3.3789-2.2969-5.9219 0-2.5 0.75391-4.4609 2.2656-5.8906 1.5078-1.4375 3.582-2.1562 6.2188-2.1562 2.4062 0 4.332 0.73047 5.7812 2.1875 1.4453 1.4492 2.1719 3.3828 2.1719 5.7969zm-5.0312-1.625c0-0.92578-0.27344-1.6719-0.8125-2.2344-0.54297-0.57031-1.25-0.85938-2.125-0.85938-0.94922 0-1.7188 0.26562-2.3125 0.79688s-0.96484 1.2969-1.1094 2.2969z"/>
  </symbol>
  <symbol id="f" overflow="visible">
   <path d="m9.2188-6.8906c-1.0234 0-1.793 0.17188-2.3125 0.51562-0.51172 0.34375-0.76562 0.85547-0.76562 1.5312 0 0.625 0.20703 1.1172 0.625 1.4688 0.41406 0.34375 0.98828 0.51562 1.7188 0.51562 0.92578 0 1.7031-0.32812 2.3281-0.98438 0.63281-0.66406 0.95312-1.4922 0.95312-2.4844v-0.5625zm7.4688-1.8438v8.7344h-4.9219v-2.2656c-0.65625 0.92969-1.3984 1.6055-2.2188 2.0312-0.82422 0.41406-1.8242 0.625-3 0.625-1.5859 0-2.8711-0.45703-3.8594-1.375-0.99219-0.92578-1.4844-2.1289-1.4844-3.6094 0-1.7891 0.61328-3.1016 1.8438-3.9375 1.2383-0.84375 3.1797-1.2656 5.8281-1.2656h2.8906v-0.39062c0-0.76953-0.30859-1.332-0.92188-1.6875-0.61719-0.36328-1.5703-0.54688-2.8594-0.54688-1.0547 0-2.0312 0.10547-2.9375 0.3125-0.89844 0.21094-1.7305 0.52344-2.5 0.9375v-3.7344c1.0391-0.25 2.0859-0.44141 3.1406-0.57812 1.0625-0.13281 2.125-0.20312 3.1875-0.20312 2.7578 0 4.75 0.54688 5.9688 1.6406 1.2266 1.0859 1.8438 2.8555 1.8438 5.3125z"/>
  </symbol>
  <symbol id="b" overflow="visible">
   <path d="m7.7031-19.656v4.3438h5.0469v3.5h-5.0469v6.5c0 0.71094 0.14062 1.1875 0.42188 1.4375s0.83594 0.375 1.6719 0.375h2.5156v3.5h-4.1875c-1.9375 0-3.3125-0.39844-4.125-1.2031-0.80469-0.8125-1.2031-2.1797-1.2031-4.1094v-6.5h-2.4219v-3.5h2.4219v-4.3438z"/>
  </symbol>
  <symbol id="m" overflow="visible">
   <path d="m12.766-13.078v-8.2031h4.9219v21.281h-4.9219v-2.2188c-0.66797 0.90625-1.4062 1.5703-2.2188 1.9844s-1.7578 0.625-2.8281 0.625c-1.8867 0-3.4336-0.75-4.6406-2.25-1.2109-1.5-1.8125-3.4258-1.8125-5.7812 0-2.3633 0.60156-4.2969 1.8125-5.7969 1.207-1.5 2.7539-2.25 4.6406-2.25 1.0625 0 2 0.21484 2.8125 0.64062 0.82031 0.42969 1.5664 1.0859 2.2344 1.9688zm-3.2188 9.9219c1.0391 0 1.8359-0.37891 2.3906-1.1406 0.55078-0.76953 0.82812-1.8828 0.82812-3.3438 0-1.457-0.27734-2.5664-0.82812-3.3281-0.55469-0.76953-1.3516-1.1562-2.3906-1.1562-1.043 0-1.8398 0.38672-2.3906 1.1562-0.55469 0.76172-0.82812 1.8711-0.82812 3.3281 0 1.4609 0.27344 2.5742 0.82812 3.3438 0.55078 0.76172 1.3477 1.1406 2.3906 1.1406z"/>
  </symbol>
  <symbol id="l" overflow="visible">
   <path d="m10.5-3.1562c1.0508 0 1.8516-0.37891 2.4062-1.1406 0.55078-0.76953 0.82812-1.8828 0.82812-3.3438 0-1.457-0.27734-2.5664-0.82812-3.3281-0.55469-0.76953-1.3555-1.1562-2.4062-1.1562-1.0547 0-1.8594 0.38672-2.4219 1.1562-0.55469 0.77344-0.82812 1.8828-0.82812 3.3281 0 1.4492 0.27344 2.5586 0.82812 3.3281 0.5625 0.77344 1.3672 1.1562 2.4219 1.1562zm-3.25-9.9219c0.67578-0.88281 1.4219-1.5391 2.2344-1.9688 0.82031-0.42578 1.7656-0.64062 2.8281-0.64062 1.8945 0 3.4453 0.75 4.6562 2.25 1.207 1.5 1.8125 3.4336 1.8125 5.7969 0 2.3555-0.60547 4.2812-1.8125 5.7812-1.2109 1.5-2.7617 2.25-4.6562 2.25-1.0625 0-2.0078-0.21094-2.8281-0.625-0.8125-0.42578-1.5586-1.0859-2.2344-1.9844v2.2188h-4.8906v-21.281h4.8906z"/>
  </symbol>
  <symbol id="k" overflow="visible">
   <path d="m0.34375-15.312h4.8906l4.125 10.391 3.5-10.391h4.8906l-6.4375 16.766c-0.64844 1.6953-1.4023 2.8828-2.2656 3.5625-0.86719 0.6875-2 1.0312-3.4062 1.0312h-2.8438v-3.2188h1.5312c0.83203 0 1.4375-0.13672 1.8125-0.40625 0.38281-0.26172 0.67969-0.73047 0.89062-1.4062l0.14062-0.42188z"/>
  </symbol>
  <symbol id="j" overflow="visible">
   <path d="m16.781-19.766v4.3125c-1.125-0.5-2.2266-0.875-3.2969-1.125-1.0625-0.25781-2.0703-0.39062-3.0156-0.39062-1.25 0-2.1797 0.17969-2.7812 0.53125-0.60547 0.34375-0.90625 0.88281-0.90625 1.6094 0 0.54297 0.20312 0.96875 0.60938 1.2812 0.40625 0.30469 1.1406 0.5625 2.2031 0.78125l2.25 0.45312c2.2695 0.44922 3.8789 1.1406 4.8281 2.0781 0.95703 0.92969 1.4375 2.2461 1.4375 3.9531 0 2.25-0.66797 3.9297-2 5.0312-1.3359 1.0938-3.3711 1.6406-6.1094 1.6406-1.3047 0-2.6055-0.125-3.9062-0.375-1.3047-0.23828-2.6055-0.59766-3.9062-1.0781v-4.4531c1.3008 0.69922 2.5625 1.2266 3.7812 1.5781 1.2188 0.34375 2.3906 0.51562 3.5156 0.51562 1.1562 0 2.0352-0.1875 2.6406-0.5625 0.61328-0.38281 0.92188-0.9375 0.92188-1.6562 0-0.63281-0.21094-1.125-0.625-1.4688-0.41797-0.34375-1.2461-0.65625-2.4844-0.9375l-2.0312-0.4375c-2.043-0.4375-3.5391-1.1328-4.4844-2.0938-0.9375-0.95703-1.4062-2.25-1.4062-3.875 0-2.0312 0.65625-3.5938 1.9688-4.6875s3.1953-1.6406 5.6562-1.6406c1.125 0 2.2734 0.085938 3.4531 0.25 1.1875 0.16797 2.4141 0.42188 3.6875 0.76562z"/>
  </symbol>
  <symbol id="i" overflow="visible">
   <path d="m12.422-21.281v3.2188h-2.7031c-0.6875 0-1.1719 0.125-1.4531 0.375-0.27344 0.25-0.40625 0.6875-0.40625 1.3125v1.0625h4.1875v3.5h-4.1875v11.812h-4.8906v-11.812h-2.4375v-3.5h2.4375v-1.0625c0-1.6641 0.46094-2.8984 1.3906-3.7031 0.92578-0.80078 2.3672-1.2031 4.3281-1.2031z"/>
  </symbol>
  <symbol id="e" overflow="visible">
   <path d="m2.1875-5.9688v-9.3438h4.9219v1.5312c0 0.83594-0.007813 1.875-0.015625 3.125-0.011719 1.25-0.015625 2.0859-0.015625 2.5 0 1.2422 0.03125 2.1328 0.09375 2.6719 0.070313 0.54297 0.17969 0.93359 0.32812 1.1719 0.20703 0.32422 0.47266 0.57422 0.79688 0.75 0.32031 0.16797 0.69141 0.25 1.1094 0.25 1.0195 0 1.8203-0.39062 2.4062-1.1719 0.58203-0.78125 0.875-1.8672 0.875-3.2656v-7.5625h4.8906v15.312h-4.8906v-2.2188c-0.74219 0.89844-1.5234 1.5586-2.3438 1.9844-0.82422 0.41406-1.7344 0.625-2.7344 0.625-1.7617 0-3.1055-0.53906-4.0312-1.625-0.92969-1.082-1.3906-2.6602-1.3906-4.7344z"/>
  </symbol>
  <symbol id="h" overflow="visible">
   <path d="m2.3594-21.281h4.8906v21.281h-4.8906z"/>
  </symbol>
  <symbol id="v" overflow="visible">
   <path d="m2.5781-20.406h6.6875l4.6562 10.922 4.6719-10.922h6.6875v20.406h-4.9844v-14.938l-4.7031 11.016h-3.3281l-4.7031-11.016v14.938h-4.9844z"/>
  </symbol>
  <symbol id="u" overflow="visible">
   <path d="m14.312-14.828v3.7188c-1.043-0.4375-2.0547-0.76562-3.0312-0.98438-0.98047-0.21875-1.9023-0.32812-2.7656-0.32812-0.92969 0-1.6211 0.11719-2.0781 0.34375-0.44922 0.23047-0.67188 0.58984-0.67188 1.0781 0 0.38672 0.17188 0.68359 0.51562 0.89062 0.34375 0.21094 0.95703 0.36719 1.8438 0.46875l0.85938 0.125c2.5078 0.32422 4.1953 0.85156 5.0625 1.5781 0.86328 0.73047 1.2969 1.8711 1.2969 3.4219 0 1.6367-0.60547 2.8672-1.8125 3.6875-1.1992 0.8125-2.9922 1.2188-5.375 1.2188-1.0234 0-2.0742-0.078125-3.1562-0.23438-1.0742-0.15625-2.1797-0.39453-3.3125-0.71875v-3.7188c0.96875 0.48047 1.9609 0.83984 2.9844 1.0781 1.0312 0.23047 2.0781 0.34375 3.1406 0.34375 0.95703 0 1.6758-0.12891 2.1562-0.39062 0.47656-0.26953 0.71875-0.66406 0.71875-1.1875 0-0.4375-0.16797-0.75781-0.5-0.96875-0.33594-0.21875-0.99609-0.38281-1.9844-0.5l-0.85938-0.10938c-2.1797-0.26953-3.7031-0.77344-4.5781-1.5156-0.875-0.73828-1.3125-1.8594-1.3125-3.3594 0-1.625 0.55078-2.8281 1.6562-3.6094 1.1133-0.78906 2.8203-1.1875 5.125-1.1875 0.89453 0 1.8359 0.074219 2.8281 0.21875 1 0.13672 2.082 0.35156 3.25 0.64062z"/>
  </symbol>
  <symbol id="t" overflow="visible">
   <path d="m2.3594-15.312h4.8906v15.312h-4.8906zm0-5.9688h4.8906v4h-4.8906z"/>
  </symbol>
  <symbol id="g" overflow="visible">
   <path d="m16.547-12.766c0.61328-0.94531 1.3477-1.6719 2.2031-2.1719 0.85156-0.5 1.7891-0.75 2.8125-0.75 1.7578 0 3.0977 0.54688 4.0156 1.6406 0.92578 1.0859 1.3906 2.6562 1.3906 4.7188v9.3281h-4.9219v-7.9844-0.35938c0.007813-0.13281 0.015625-0.32031 0.015625-0.5625 0-1.082-0.16406-1.8633-0.48438-2.3438-0.3125-0.48828-0.82422-0.73438-1.5312-0.73438-0.92969 0-1.6484 0.38672-2.1562 1.1562-0.51172 0.76172-0.77344 1.8672-0.78125 3.3125v7.5156h-4.9219v-7.9844c0-1.6953-0.14844-2.7852-0.4375-3.2656-0.29297-0.48828-0.8125-0.73438-1.5625-0.73438-0.9375 0-1.6641 0.38672-2.1719 1.1562-0.51172 0.76172-0.76562 1.8594-0.76562 3.2969v7.5312h-4.9219v-15.312h4.9219v2.2344c0.60156-0.86328 1.2891-1.5156 2.0625-1.9531 0.78125-0.4375 1.6406-0.65625 2.5781-0.65625 1.0625 0 2 0.25781 2.8125 0.76562 0.8125 0.51172 1.4258 1.2305 1.8438 2.1562z"/>
  </symbol>
  <symbol id="d" overflow="visible">
   <path d="m9.6406-12.188c-1.0859 0-1.9141 0.39062-2.4844 1.1719-0.57422 0.78125-0.85938 1.9062-0.85938 3.375s0.28516 2.5938 0.85938 3.375c0.57031 0.77344 1.3984 1.1562 2.4844 1.1562 1.0625 0 1.875-0.38281 2.4375-1.1562 0.57031-0.78125 0.85938-1.9062 0.85938-3.375s-0.28906-2.5938-0.85938-3.375c-0.5625-0.78125-1.375-1.1719-2.4375-1.1719zm0-3.5c2.6328 0 4.6914 0.71484 6.1719 2.1406 1.4766 1.418 2.2188 3.3867 2.2188 5.9062 0 2.5117-0.74219 4.4805-2.2188 5.9062-1.4805 1.418-3.5391 2.125-6.1719 2.125-2.6484 0-4.7148-0.70703-6.2031-2.125-1.4922-1.4258-2.2344-3.3945-2.2344-5.9062 0-2.5195 0.74219-4.4883 2.2344-5.9062 1.4883-1.4258 3.5547-2.1406 6.2031-2.1406z"/>
  </symbol>
  <symbol id="s" overflow="visible">
   <path d="m17.75-9.3281v9.3281h-4.9219v-7.1094c0-1.3438-0.03125-2.2656-0.09375-2.7656s-0.16797-0.86719-0.3125-1.1094c-0.1875-0.3125-0.44922-0.55469-0.78125-0.73438-0.32422-0.17578-0.69531-0.26562-1.1094-0.26562-1.0234 0-1.8242 0.39844-2.4062 1.1875-0.58594 0.78125-0.875 1.8711-0.875 3.2656v7.5312h-4.8906v-21.281h4.8906v8.2031c0.73828-0.88281 1.5195-1.5391 2.3438-1.9688 0.83203-0.42578 1.75-0.64062 2.75-0.64062 1.7695 0 3.1133 0.54688 4.0312 1.6406 0.91406 1.0859 1.375 2.6562 1.375 4.7188z"/>
  </symbol>
  <symbol id="r" overflow="visible">
   <path d="m2.5781-20.406h5.875l7.4219 14v-14h4.9844v20.406h-5.875l-7.4219-14v14h-4.9844z"/>
  </symbol>
  <symbol id="q" overflow="visible">
   <path d="m17.75-9.3281v9.3281h-4.9219v-7.1406c0-1.3203-0.03125-2.2344-0.09375-2.7344s-0.16797-0.86719-0.3125-1.1094c-0.1875-0.3125-0.44922-0.55469-0.78125-0.73438-0.32422-0.17578-0.69531-0.26562-1.1094-0.26562-1.0234 0-1.8242 0.39844-2.4062 1.1875-0.58594 0.78125-0.875 1.8711-0.875 3.2656v7.5312h-4.8906v-15.312h4.8906v2.2344c0.73828-0.88281 1.5195-1.5391 2.3438-1.9688 0.83203-0.42578 1.75-0.64062 2.75-0.64062 1.7695 0 3.1133 0.54688 4.0312 1.6406 0.91406 1.0859 1.375 2.6562 1.375 4.7188z"/>
  </symbol>
  <symbol id="p" overflow="visible">
   <path d="m2.5781-20.406h8.7344c2.5938 0 4.582 0.57812 5.9688 1.7344 1.3945 1.1484 2.0938 2.7891 2.0938 4.9219 0 2.1367-0.69922 3.7812-2.0938 4.9375-1.3867 1.1562-3.375 1.7344-5.9688 1.7344h-3.4844v7.0781h-5.25zm5.25 3.8125v5.7031h2.9219c1.0195 0 1.8047-0.25 2.3594-0.75 0.5625-0.5 0.84375-1.2031 0.84375-2.1094 0-0.91406-0.28125-1.6172-0.84375-2.1094-0.55469-0.48828-1.3398-0.73438-2.3594-0.73438z"/>
  </symbol>
  <symbol id="o" overflow="visible">
   <path d="m2.3594-15.312h4.8906v15.031c0 2.0508-0.49609 3.6172-1.4844 4.7031-0.98047 1.082-2.4062 1.625-4.2812 1.625h-2.4219v-3.2188h0.85938c0.92578 0 1.5625-0.21094 1.9062-0.625 0.35156-0.41797 0.53125-1.2461 0.53125-2.4844zm0-5.9688h4.8906v4h-4.8906z"/>
  </symbol>
  <symbol id="n" overflow="visible">
   <path d="m14.719-14.828v3.9844c-0.65625-0.45703-1.3242-0.79688-2-1.0156-0.66797-0.21875-1.3594-0.32812-2.0781-0.32812-1.3672 0-2.4336 0.40234-3.2031 1.2031-0.76172 0.79297-1.1406 1.9062-1.1406 3.3438 0 1.4297 0.37891 2.543 1.1406 3.3438 0.76953 0.79297 1.8359 1.1875 3.2031 1.1875 0.75781 0 1.4844-0.10938 2.1719-0.32812 0.6875-0.22656 1.3203-0.56641 1.9062-1.0156v4c-0.76172 0.28125-1.5391 0.48828-2.3281 0.625-0.78125 0.14453-1.5742 0.21875-2.375 0.21875-2.7617 0-4.9219-0.70703-6.4844-2.125-1.5547-1.4141-2.3281-3.3828-2.3281-5.9062 0-2.5312 0.77344-4.5039 2.3281-5.9219 1.5625-1.4141 3.7227-2.125 6.4844-2.125 0.80078 0 1.5938 0.074219 2.375 0.21875 0.78125 0.13672 1.5547 0.35156 2.3281 0.64062z"/>
  </symbol>
 </defs>
 <g>
  <path d="m497.59 49.043c6.7188 4.0977 16.613 10.445 29.688 19.027 3.168 1.8711 9.2344 6.0703 18.199 12.602 7.4648 5.0391 13.625 8.9727 18.48 11.77 8.2148 4.0977 11.664 11.945 10.359 23.516-0.55859 4.4844-2.0508 9.0547-4.4805 13.715-0.93359 1.6875-3.4492 5.6016-7.5586 11.77-19.414 29.676-42.656 61.414-69.719 95.199-5.6016 6.8984-13.164 17.914-22.68 33.027-3.3672 4.3008-2.9922 7.9414 1.1133 10.926l8.3984 5.875c30.801 20.355 58.801 42.656 84 66.926 7.8398 7.2734 18.391 19.785 31.641 37.516 5.6016 6.7266 6.25 13.816 1.9609 21.285-3.9141 7.8398-7.1836 13.531-9.8008 17.074-16.984 22.781-37.984 46.301-63 70.57-5.0352 4.6602-8.5859 7.1836-10.633 7.5586-1.8711 0-5.7852-1.8711-11.766-5.6016-1.6797-1.6875-3.168-2.7109-4.4805-3.0859-17.359-7.0898-36.215-18.199-56.559-33.312-23.152-18.301-40.504-31.832-52.078-40.602l-21.566-15.398c-6.1602-3.9258-10.078-5.8867-11.762-5.8867-1.6797 0.18359-4.8555 2.9844-9.5195 8.3984-25.949 30.238-51.801 63.746-77.559 100.53-5.9766 8.7695-10.922 14.559-14.84 17.359-6.1602 4.2891-10.168 2.5156-12.039-5.3242-7.4648 0-13.809-2.043-19.035-6.1602-21.84-15.488-37.992-27.16-48.441-35-7.8398-5.6016-15.023-13.344-21.559-23.238-3.3594-5.4141-4.7617-10.629-4.1992-15.676 0.37109-4.4844 2.4258-9.5273 6.1602-15.125 5.7891-8.3984 29.59-39.844 71.398-94.359 8.5859-11.199 12.602-19.312 12.039-24.359-0.37109-4.8555-5.8789-12.129-16.52-21.84-12.695-12.129-24.543-20.531-35.559-25.199-13.625-5.7852-27.254-13.898-40.879-24.359-10.078-7.4688-22.121-17.73-36.121-30.801-8.5859-7.4688-10.641-16.43-6.1602-26.887 3.1758-8.5859 8.1211-18.289 14.84-29.113 8.0234-11.762 14-20.715 17.922-26.887 6.7188-11.016 16.895-23.891 30.52-38.629 3.3594-3.7422 6.7188-5.9805 10.078-6.7266 3.3594-0.37109 7.375 0.37109 12.039 2.2383 7.8398 3.168 16.43 9.2383 25.766 18.199 35.094 32.855 65.609 58.43 91.559 76.715l2.8008 2.2383c8.2148 5.4141 13.816 8.0312 16.801 7.8398 3.5508-0.18359 8.0312-4.3867 13.441-12.602 10.266-15.871 23.703-35.746 40.312-59.641 25.766-36.77 39.574-56.461 41.441-59.074 3.168-4.4844 8.6797-10.641 16.52-18.484 5.6016-6.1602 9.8945-9.3281 12.879-9.5156 2.4297-0.57031 8.1211 1.0195 17.078 4.7617 9.332 3.5547 19.691 8.9688 31.078 16.254zm54.887 49.555c-4.1055-2.9844-14.75-10.086-31.922-21.285-13.441-8.7695-23.52-15.398-30.238-19.875-11.945-7.8398-22.496-13.727-31.633-17.641-6.1641-2.8008-9.9922-4.0156-11.484-3.6406-1.8633 0.37109-4.6641 3.168-8.3984 8.3984-19.785 27.254-32.297 44.984-37.516 53.199-5.7891 9.6992-15.871 24.641-30.238 44.801-13.629 18.855-23.703 33.699-30.238 44.516-4.2969 7.2852-8.0234 11.301-11.199 12.039-2.9844 0.55859-8.2109-1.3984-15.68-5.875-30.43-18.484-57.215-39.199-80.359-62.172-16.984-16.418-32.016-28.559-45.078-36.398-5.6016-3.543-9.4258-5.1289-11.48-4.7617-1.6797 0.37109-4.5742 2.9844-8.6797 7.8398l-16.238 19.312c-14 18.109-25.57 37.156-34.719 57.125-5.7891 11.945-5.4141 21.09 1.1211 27.441 11.762 11.387 21.656 20.16 29.68 26.312 11.387 8.7695 22.68 15.586 33.879 20.441 19.785 8.5859 40.23 23.055 61.32 43.398 6.1602 6.1602 7.5586 13.715 4.1992 22.676-2.8008 6.5391-8.7695 15.973-17.922 28.285l-29.961 38.914c-1.8711 2.2383-2.9922 3.832-3.3672 4.7695-0.55859 1.8594-0.09375 3.8203 1.3984 5.875 17.168 26.141 39.297 44.801 66.367 56 8.5859 3.543 18.387 3.543 29.398 0 10.824-3.168 19.312-8.6758 25.48-16.516 11.387-14.941 21.371-27.16 29.961-36.688 2.8008-3.543 5.1367-5.5 7-5.875 2.8008-0.75781 5.3203 1.3008 7.5664 6.1602 0.18359 1.1133 1.3984 2.2383 3.6328 3.3594 7.6562 3.3594 15.496 8.5 23.52 15.398 2.9844 2.2383 10.078 8.3984 21.281 18.484 9.1523 7.2734 18.48 11.57 28 12.875 9.1523 1.125 18.766 0.55859 28.84-1.6758 5.7852-1.3086 14.93-4.1094 27.434-8.3984 26.887-9.3398 45.922-29.398 57.121-60.199 2.6133-8.0312 0.93359-14.84-5.0352-20.441-23.895-21.285-50.031-42.102-78.398-62.441-6.9062-5.0391-13.07-4.5703-18.484 1.3984-1.4961-2.0547-1.5859-4.4844-0.28125-7.2852 11.387-22.961 23.152-41.242 35.281-54.875 24.27-28.184 48.629-61.969 73.086-101.36 4.2969-6.9102 5.8789-12.512 4.7617-16.801-0.96094-4.6406-4.875-9.5859-11.777-14.816zm33.598 301.56c-8.3984-13.254-16.336-23.055-23.801-29.398-3.3672 11.016-8.6875 22.301-15.965 33.887-1.3047 1.8594-8.3047 11.66-21 29.398-9.3281 13.242-17.543 28.09-24.633 44.516-1.6875 4.0977-1.9648 7.2852-0.83984 9.5156 1.1211 2.0547 3.7344 3.832 7.8398 5.3242 3.3594 1.1133 5.9688 0.83984 7.8359-0.83984 0.37109-0.74609 1.5859-2.9844 3.6406-6.7148l35.559-66.641c2.8008-5.6016 5.0391-9.6133 6.7188-12.039 2.9844-4.6719 6.25-8.0312 9.8008-10.086-3.9219 9.3398-10.266 22.586-19.039 39.77-2.4258 4.4727-6.0664 10.914-10.914 19.312-4.2969 7.8398-7.2852 15.215-8.9648 22.113 13.441-9.3281 25.199-23.984 35.281-43.961 2.4297-5.6016 4.2969-9.6992 5.6016-12.312 2.6133-4.6719 5.6953-7.5586 9.2383-8.6875 6.9062-2.4258 8.1211-6.8125 3.6406-13.156zm-127.68 67.484c4.2969 4.0977 8.3047 5.7852 12.039 5.0273 7.6484-1.3008 12.23-9.5156 13.719-24.629-8.3984 0.18359-21.184 2.418-38.367 6.7148 3 2.6172 7.1992 6.9023 12.609 12.887zm21.285 5.875c-1.1211 2.6133-1.0312 4.7617 0.28125 6.4414 0.74609 1.1133 2.7031 2.3281 5.8789 3.6406 4.2969 2.6133 7.5586 1.3008 9.8008-3.9258l20.16-43.113c-10.078 1.6875-18.105 6.3438-24.078 14-2.4336 2.9805-6.4453 10.637-12.043 22.957zm-280.57-66.359c-0.18359-2.2383-3.3594-6.4414-9.5195-12.602-4.6641 5.2305-9.4297 11.762-14.281 19.602-2.9844 4.6719-7.1836 11.672-12.602 21-2.6094 4.0977-3.4492 8.3984-2.5195 12.887 0.93359 4.6602 3.543 8.5859 7.8398 11.762 1.6797-0.55859 3.2656-2.1445 4.7617-4.7617 1.6797-2.4297 3.2656-3.9258 4.7617-4.4844v0.28516h0.28125l-3.3594 12.875c-0.18359 5.7852 2.8945 9.6133 9.2383 11.484 2.0547 0.55859 3.543 0 4.4805-1.6875 0.93359-2.2383 1.7695-3.832 2.5195-4.7617 7.4688-12.699 15.121-23.699 22.965-33.039 4.2969-4.8555 4.3867-8.5859 0.28125-11.199-0.18359-0.37109-1.5859-1.5859-4.1992-3.6406-1.3047-1.4883-2.9844-2.418-5.0391-2.8008-3.168 2.8008-7.5586 8.3984-13.16 16.801-5.0391 7.4688-9.6133 12.785-13.719 15.973v-0.28516h-0.28125c1.1211-4.0977 3.6406-9.1445 7.5586-15.113 5.2305-7.6562 8.3047-12.512 9.2383-14.57 3.7305-6.9102 5.3203-11.484 4.7539-13.723zm9.5195 42.559c-0.18359 0.37109-4.1992 6.5391-12.039 18.484-1.8633 2.9844-2.3359 7.5586-1.3984 13.715 0.37109 2.4297 1.8633 4.4844 4.4805 6.1602 1.1133 1.3086 3.2656 2.7109 6.4336 4.1992 2.4297 1.5 4.2969 0.46875 5.6016-3.0742 2.4297-6.9102 7-14.371 13.719-22.398 7.4648-9.1445 13.066-16.238 16.801-21.285l-17.359-12.312c-5.5938 4.2812-11.008 9.793-16.238 16.512zm25.199 61.879c1.6797 1.4883 3.3594 2.4297 5.0391 2.8008 2.8008 0.55859 4.1992 1.9609 4.1992 4.1992-0.375 1.3008-0.75 3.168-1.1211 5.6016 7.0938-1.3086 11.57-5.8867 13.434-13.727 1.8711-8.7695 6.7188-19.414 14.566-31.914l12.035-19.887c-11.199-3.9141-19.879-0.55859-26.035 10.086-9.8945 15.871-16.52 27.344-19.879 34.441-1.3047-4.4844-1.1211-8.8711 0.55859-13.16 0.55859-1.6875 2.3359-5.0391 5.3203-10.086l12.035-19.312c2.4297-3.7422 2.0547-6.7266-1.1133-8.9727-3.1758-2.418-6.2539-1.9609-9.2383 1.3984-11.016 12.324-18.016 21.102-21 26.324-3.9219 7.2734-5.5039 12.602-4.7617 15.961 0.74609 3.3594 4.4805 7.4688 11.199 12.312 0.9375 0.94922 2.5234 2.2539 4.7617 3.9336zm51.801-37.797c2.4297-2.8008 3.832-5.6016 4.1992-8.3984-6.3516 3.543-10.078 8.3984-11.199 14.559 3.1758-2.6172 5.5117-4.6719 7-6.1602z" fill-rule="evenodd"/>
  <use x="70" y="644" xlink:href="#w"/>
  <use x="90.550781" y="644" xlink:href="#c"/>
  <use x="104.359375" y="644" xlink:href="#a"/>
  <use x="123.347656" y="644" xlink:href="#f"/>
  <use x="142.242188" y="644" xlink:href="#b"/>
  <use x="155.628906" y="644" xlink:href="#a"/>
  <use x="174.617188" y="644" xlink:href="#m"/>
  <use x="204.410156" y="644" xlink:href="#l"/>
  <use x="224.453125" y="644" xlink:href="#k"/>
  <use x="252.453125" y="644" xlink:href="#j"/>
  <use x="272.617188" y="644" xlink:href="#f"/>
  <use x="291.511719" y="644" xlink:href="#a"/>
  <use x="310.5" y="644" xlink:href="#i"/>
  <use x="322.683594" y="644" xlink:href="#e"/>
  <use x="342.617188" y="644" xlink:href="#h"/>
  <use x="361.960938" y="644" xlink:href="#v"/>
  <use x="389.828125" y="644" xlink:href="#e"/>
  <use x="409.757812" y="644" xlink:href="#u"/>
  <use x="426.425781" y="644" xlink:href="#h"/>
  <use x="436.023438" y="644" xlink:href="#t"/>
  <use x="445.621094" y="644" xlink:href="#g"/>
  <use x="70" y="672" xlink:href="#i"/>
  <use x="82.183594" y="672" xlink:href="#c"/>
  <use x="95.992188" y="672" xlink:href="#d"/>
  <use x="115.226562" y="672" xlink:href="#g"/>
  <use x="154.152344" y="672" xlink:href="#b"/>
  <use x="167.535156" y="672" xlink:href="#s"/>
  <use x="187.46875" y="672" xlink:href="#a"/>
  <use x="216.207031" y="672" xlink:href="#r"/>
  <use x="239.640625" y="672" xlink:href="#d"/>
  <use x="258.878906" y="672" xlink:href="#e"/>
  <use x="278.8125" y="672" xlink:href="#q"/>
  <use x="308.492188" y="672" xlink:href="#p"/>
  <use x="329.015625" y="672" xlink:href="#c"/>
  <use x="342.820312" y="672" xlink:href="#d"/>
  <use x="362.058594" y="672" xlink:href="#o"/>
  <use x="371.65625" y="672" xlink:href="#a"/>
  <use x="390.648438" y="672" xlink:href="#n"/>
  <use x="407.242188" y="672" xlink:href="#b"/>
 </g>
</svg>
